:SAMPLES-PER-SECOND 30
:FULLY-SPECIFIED
:DEGREES
21
root  3.1195 40.1707 0.118982 -177.32 -74.8719 173.554
RightUpLeg  -19.7191 -13.573 -7.063
RightLeg  30.248 1.95268 1.00843
RightFoot  0.618969 -1.01436 9.70373
RightToes  0.000482159 0.542163 -0.142577
Spine  12.733 -0.512269 -2.82917
Spine1  4.50145 -0.808482 -0.918458
HEad  3.31464 -3.16528 -0.53407
LeftShoulder1  5.92075 -10.185 -37.128
LeftArm  -19.6311 5.62377 -23.4056
LeftForeArm  9.88001 -2.48856 -2.05066
LeftHand  -0.25398 0.0180481 5.50724
RightShoulder  3.73063 7.26851 28.6415
RightArm  -8.41959 -13.3436 24.4041
RightForeArm  12.7474 26.3867 4.99198
RightHand  -0.882658 2.73231 -12.8422
LeftUpLeg  4.23986 7.56312 1.09535
LeftLeg  11.5871 21.149 -2.29508
LeftFoot  -13.5042 0.0305893 -2.67252
LeftToes  1.06247e-005 4.65855e-005 -8.18504e-006
22
root  2.76908 40.1446 -0.0555116 -177.535 -74.5013 173.859
RightUpLeg  -19.7519 -14.863 -6.89777
RightLeg  23.5888 0.793384 0.109449
RightFoot  0.214294 -0.921677 9.10585
RightToes  0.000482159 0.542163 -0.142577
Spine  13.1311 -0.800141 -3.31678
Spine1  4.97366 -1.31255 -0.174946
HEad  3.17955 -2.03611 -1.02502
LeftShoulder1  6.55794 -10.7982 -39.6228
LeftArm  -18.1944 3.18873 -26.0086
LeftForeArm  14.0271 -3.07135 -2.76115
LeftHand  -0.25398 0.0180481 5.50724
RightShoulder  3.96941 7.51747 30.0538
RightArm  -6.81177 -15.1407 27.9905
RightForeArm  14.4163 25.4643 4.69453
RightHand  -0.625975 1.53379 -10.6647
LeftUpLeg  4.78977 7.55168 1.25212
LeftLeg  11.6374 21.5314 -2.09984
LeftFoot  -13.8589 0.0228121 -2.73855
LeftToes  1.06247e-005 4.65855e-005 -8.18504e-006
23
root  2.34174 40.0913 -0.284659 -177.036 -74.1604 173.509
RightUpLeg  -19.4136 -16.2005 -6.86815
RightLeg  16.4323 0.205484 0.106261
RightFoot  -0.0620264 -0.860702 8.69526
RightToes  0.000482159 0.542163 -0.142577
Spine  13.3138 -1.08924 -3.93953
Spine1  5.49632 -1.84878 0.622535
HEad  2.88336 -0.875279 -1.61299
LeftShoulder1  7.04468 -11.2497 -41.4105
LeftArm  -15.7632 0.649959 -28.9625
LeftForeArm  19.3981 -4.32098 -3.80809
LeftHand  -0.25398 0.0180481 5.50724
RightShoulder  4.16213 7.75227 31.028
RightArm  -5.93982 -17.3317 31.9981
RightForeArm  16.0488 24.0228 4.30378
RightHand  -0.439821 0.543706 -8.6938
LeftUpLeg  5.41337 7.62472 1.36783
LeftLeg  11.6914 21.5875 -2.06205
LeftFoot  -14.3547 6.29074e-005 -3.26014
LeftToes  1.06247e-005 4.65855e-005 -8.18504e-006
24
root  1.83807 40.0253 -0.564741 -175.656 -73.9223 172.458
RightUpLeg  -18.8826 -15.2743 -7.97903
RightLeg  9.76273 -2.52996 1.26025
RightFoot  -0.0299602 -0.810938 8.17504
RightToes  0.000482159 0.542163 -0.142577
Spine  13.187 -1.45018 -4.62198
Spine1  6.01132 -2.484 1.48844
HEad  2.73746 0.321924 -2.32137
LeftShoulder1  7.37658 -11.5501 -42.5757
LeftArm  -11.6598 -1.96368 -32.0506
LeftForeArm  25.6805 -6.03353 -5.36865
LeftHand  -0.25398 0.0180481 5.50724
RightShoulder  4.29229 7.91328 31.6516
RightArm  -5.91146 -19.6751 36.2117
RightForeArm  17.6952 21.9139 3.99108
RightHand  -0.310263 -0.225281 -6.97213
LeftUpLeg  6.09855 7.59486 1.33981
LeftLeg  11.4179 21.4339 -2.22429
LeftFoot  -14.7802 -0.0334159 -4.06646
LeftToes  1.06247e-005 4.65855e-005 -8.18504e-006
25
root  1.25745 39.9259 -0.901045 -173.791 -73.6689 170.852
RightUpLeg  -18.357 -12.5693 -9.91695
RightLeg  4.70519 -7.01213 2.9557
RightFoot  0.421675 -0.800377 7.7847
RightToes  0.000482159 0.542163 -0.142577
Spine  13.1067 -1.83656 -5.3653
Spine1  6.42041 -3.16864 2.31408
HEad  2.6669 1.61522 -3.22693
LeftShoulder1  7.60502 -11.7425 -43.388
LeftArm  -5.77012 -4.46948 -35.0961
LeftForeArm  31.9364 -8.57371 -7.00625
LeftHand  -0.25398 0.0180481 5.50724
RightShoulder  4.38383 8.01812 32.1055
RightArm  -6.72542 -21.8924 40.0342
RightForeArm  19.8017 19.2634 4.11703
RightHand  -0.205978 -0.957143 -5.25575
LeftUpLeg  6.95509 7.5041 1.17371
LeftLeg  11.1898 21.5607 -2.31563
LeftFoot  -15.2091 -0.0587326 -4.44479
LeftToes  1.06247e-005 4.65855e-005 -8.18504e-006
26
root  0.600202 39.7845 -1.30428 -172.429 -73.2546 169.359
RightUpLeg  -18.1583 -12.2204 -10.6968
RightLeg  2.70781 -8.87118 3.7086
RightFoot  0.792527 -0.813434 7.69058
RightToes  0.000482159 0.542163 -0.142577
Spine  13.3778 -2.16868 -6.11603
Spine1  6.85878 -3.84953 3.13937
HEad  2.37725 3.04796 -4.36943
LeftShoulder1  7.77899 -11.8857 -43.9999
LeftArm  2.4964 -6.44476 -38.098
LeftForeArm  34.9596 -12.6464 -7.29856
LeftHand  -0.25398 0.0180481 5.50724
RightShoulder  4.49445 8.1798 32.5262
RightArm  -7.327 -23.8452 42.9064
RightForeArm  22.7162 16.88 4.52385
RightHand  -0.0922946 -2.20912 -2.71061
LeftUpLeg  8.32578 7.5318 1.14579
LeftLeg  11.1745 21.8025 -2.29858
LeftFoot  -15.8319 -0.0971827 -4.88036
LeftToes  1.06247e-005 4.65855e-005 -8.18504e-006
27
root  -0.124451 39.6283 -1.7808 -172.124 -72.81 168.701
RightUpLeg  -18.1301 -13.0694 -10.5088
RightLeg  3.8547 -9.52948 3.52971
RightFoot  1.02256 -0.793059 7.37073
RightToes  0.000482159 0.542163 -0.142577
Spine  13.8446 -2.48537 -6.74055
Spine1  7.38635 -4.61625 4.24245
HEad  1.96417 4.56778 -5.67136
LeftShoulder1  7.88834 -11.958 -44.4305
LeftArm  10.7376 -7.56289 -40.8908
LeftForeArm  33.7812 -17.5028 -5.61633
LeftHand  -0.25398 0.0180481 5.50724
RightShoulder  4.62571 8.41039 32.8839
RightArm  -6.46582 -25.6302 44.6472
RightForeArm  26.6788 15.6692 4.84203
RightHand  -0.0224034 -4.16647 1.49889
LeftUpLeg  10.203 7.69985 1.52464
LeftLeg  11.0333 21.5119 -2.32655
LeftFoot  -16.5545 -0.187809 -6.29023
LeftToes  1.06247e-005 4.65855e-005 -8.18504e-006
28
root  -0.910939 39.4994 -2.323 -172.976 -72.6229 169.504
RightUpLeg  -18.3346 -14.4853 -9.39585
RightLeg  6.48137 -9.67184 2.83128
RightFoot  2.16358 -0.69802 6.04115
RightToes  0.000482159 0.542163 -0.142577
Spine  14.1852 -2.94647 -6.79882
Spine1  7.70449 -5.52523 5.59059
HEad  1.8298 6.05504 -6.89699
LeftShoulder1  7.90467 -11.9107 -44.6694
LeftArm  14.9547 -7.97989 -43.0961
LeftForeArm  31.4323 -21.3903 -3.85546
LeftHand  -0.25398 0.0180481 5.50724
RightShoulder  4.70338 8.56328 33.0355
RightArm  -4.10841 -27.4812 45.4261
RightForeArm  31.0911 15.8502 4.88955
RightHand  -0.0746408 -5.85775 6.80873
LeftUpLeg  11.9946 8.02182 2.44183
LeftLeg  10.7208 20.7921 -2.2109
LeftFoot  -17.0202 -0.280297 -7.7084
LeftToes  1.06247e-005 4.65855e-005 -8.18504e-006
29
root  -1.76266 39.4135 -2.91532 -175.56 -72.6139 172.475
RightUpLeg  -18.9201 -16.1431 -7.29854
RightLeg  9.33718 -8.88736 1.98044
RightFoot  4.47522 -0.468324 3.60996
RightToes  0.000482159 0.542163 -0.142577
Spine  14.4145 -3.58673 -5.67094
Spine1  7.61333 -6.36401 6.63138
HEad  2.01135 7.41649 -7.77258
LeftShoulder1  7.86667 -11.8211 -44.7157
LeftArm  15.6679 -8.09997 -44.4896
LeftForeArm  29.8148 -24.0384 -3.5323
LeftHand  -0.25398 0.0180481 5.50724
RightShoulder  4.6906 8.56886 32.9115
RightArm  -1.37714 -29.3762 45.5359
RightForeArm  33.8645 16.8563 4.6972
RightHand  -0.139623 -6.31068 10.8987
LeftUpLeg  13.3422 8.89395 4.12224
LeftLeg  10.7698 19.9144 -1.56103
LeftFoot  -17.1404 -0.306801 -8.07143
LeftToes  1.06247e-005 4.65855e-005 -8.18504e-006
30
root  -2.6714 39.3309 -3.56011 -179.959 -72.2555 177.246
RightUpLeg  -19.8177 -18.3035 -4.20958
RightLeg  12.5808 -6.03999 0.963854
RightFoot  6.10638 -0.133094 1.11792
RightToes  0.000482159 0.542163 -0.142577
Spine  14.7984 -4.19903 -3.49669
Spine1  7.46476 -6.86516 7.04199
HEad  2.14955 8.65988 -8.19979
LeftShoulder1  7.86544 -11.8453 -44.6351
LeftArm  15.1278 -8.1563 -44.9641
LeftForeArm  29.5582 -26.1467 -4.03351
LeftHand  -0.25398 0.0180481 5.50724
RightShoulder  4.66746 8.58253 32.6769
RightArm  0.504658 -30.7399 45.099
RightForeArm  33.4529 17.7569 4.51914
RightHand  -0.118588 -5.99904 11.8938
LeftUpLeg  14.5608 11.043 6.78287
LeftLeg  11.8117 17.6213 -0.270135
LeftFoot  -17.226 -0.391578 -9.55548
LeftToes  1.06247e-005 4.65855e-005 -8.18504e-006
31
root  -3.59526 39.2279 -4.26899 175.566 -71.3225 -178.256
RightUpLeg  -20.4642 -20.391 -1.02893
RightLeg  16.2471 -2.285 -0.0318778
RightFoot  5.24886 0.106454 -0.495237
RightToes  0.000482159 0.542163 -0.142577
Spine  15.4049 -4.61788 -1.39738
Spine1  7.69727 -7.09485 7.27155
HEad  2.17058 9.86034 -8.27508
LeftShoulder1  7.93355 -12.0027 -44.5622
LeftArm  14.2902 -8.14841 -44.4985
LeftForeArm  30.53 -28.0674 -4.40433
LeftHand  -0.25398 0.0180481 5.50724
RightShoulder  4.73188 8.75724 32.6512
RightArm  0.931199 -30.7828 44.0423
RightForeArm  31.2091 17.7517 4.62349
RightHand  -0.0711346 -5.60802 10.2404
LeftUpLeg  15.5569 14.5974 9.99439
LeftLeg  14.4465 13.0287 1.78193
LeftFoot  -16.9153 -0.593992 -14.3724
LeftToes  1.06247e-005 4.65855e-005 -8.18504e-006
